<?xml version="1.0" encoding="UTF-8"?>
<svg xmlns="http://www.w3.org/2000/svg" xmlns:xlink="http://www.w3.org/1999/xlink" width="150px" height="150px" viewBox="0 0 150 150" version="1.1">
<defs>
<clipPath id="clip1">
  <path d="M 0 0.300781 L 150 0.300781 L 150 149.699219 L 0 149.699219 Z M 0 0.300781 "/>
</clipPath>
</defs>
<g id="surface1">
<g clip-path="url(#clip1)" clip-rule="nonzero">
<path style=" stroke:none;fill-rule:nonzero;fill:rgb(0%,63.137257%,87.450981%);fill-opacity:1;" d="M 75 143.921875 C 37.199219 143.921875 6.5625 113.285156 6.5625 75.484375 C 6.515625 37.636719 37.152344 7 75 7 C 112.800781 7 143.4375 37.636719 143.4375 75.4375 C 143.4375 113.238281 112.800781 143.921875 75 143.921875 Z M 74.953125 0.300781 C 33.59375 0.300781 -0.046875 33.804688 -0.046875 74.976562 C -0.046875 116.195312 33.59375 149.699219 74.953125 149.699219 C 116.3125 149.699219 150 116.195312 150 75.023438 C 150 33.804688 116.359375 0.300781 74.953125 0.300781 Z M 74.953125 0.300781 "/>
</g>
<path style=" stroke:none;fill-rule:nonzero;fill:rgb(0%,63.137257%,87.450981%);fill-opacity:1;" d="M 55.964844 108.523438 C 44.644531 103.207031 36.785156 91.195312 36.785156 77.285156 C 36.785156 69.9375 38.957031 63.144531 42.699219 57.597656 L 67.378906 94.390625 L 82.308594 94.390625 L 106.988281 57.597656 C 110.730469 63.144531 112.902344 69.984375 112.902344 77.285156 C 112.902344 90.269531 106.066406 101.542969 95.992188 107.375 L 100.75 125.578125 C 118.867188 116.246094 131.199219 97.390625 131.199219 75.625 C 131.199219 55.0625 120.152344 37.125 103.703125 27.335938 L 75.054688 71.558594 L 46.675781 27.152344 C 30.035156 36.902344 18.859375 54.96875 18.859375 75.625 C 18.859375 98.175781 32.125 117.632812 51.300781 126.550781 Z M 55.964844 108.523438 "/>
</g>
</svg>
