<?xml version="1.0" encoding="UTF-8"?>
<svg xmlns="http://www.w3.org/2000/svg" xmlns:xlink="http://www.w3.org/1999/xlink" width="150px" height="147px" viewBox="0 0 150 147" version="1.1">
<g id="surface1">
<path style=" stroke:none;fill-rule:nonzero;fill:rgb(90.980393%,46.27451%,17.254902%);fill-opacity:1;" d="M 98.351562 77.691406 L 77.84375 77.691406 L 77.84375 100.148438 L 69.761719 100.148438 L 69.761719 77.691406 L 49.101562 77.691406 L 49.101562 69.90625 L 69.761719 69.90625 L 69.761719 47.453125 L 77.84375 47.453125 L 77.84375 69.90625 L 98.351562 69.90625 Z M 98.351562 77.691406 "/>
<path style=" stroke:none;fill-rule:nonzero;fill:rgb(78.039217%,12.54902%,20.784314%);fill-opacity:1;" d="M 57.1875 105.386719 L 38.773438 105.386719 L 38.773438 85.175781 L 31.886719 85.175781 L 31.886719 105.386719 L 13.171875 105.386719 L 13.171875 111.375 L 31.886719 111.375 L 31.886719 131.285156 L 38.773438 131.285156 L 38.773438 111.375 L 57.1875 111.375 Z M 57.1875 105.386719 "/>
<path style=" stroke:none;fill-rule:nonzero;fill:rgb(34.901962%,52.941179%,60.784316%);fill-opacity:1;" d="M 135.777344 34.578125 L 117.214844 34.578125 L 117.214844 14.519531 L 110.328125 14.519531 L 110.328125 34.578125 L 91.917969 34.578125 L 91.917969 40.867188 L 110.328125 40.867188 L 110.328125 60.777344 L 117.214844 60.777344 L 117.214844 40.867188 L 135.777344 40.867188 Z M 135.777344 34.578125 "/>
<path style=" stroke:none;fill-rule:nonzero;fill:rgb(35.686275%,39.607844%,56.862748%);fill-opacity:1;" d="M 89.519531 127.242188 L 77.097656 127.242188 L 77.097656 113.320312 L 71.109375 113.320312 L 71.109375 127.242188 L 58.382812 127.242188 L 58.382812 132.632812 L 71.109375 132.632812 L 71.109375 146.851562 L 77.097656 146.851562 L 77.097656 132.632812 L 89.519531 132.632812 Z M 89.519531 127.242188 "/>
<path style=" stroke:none;fill-rule:nonzero;fill:rgb(92.156863%,56.862748%,17.254902%);fill-opacity:1;" d="M 57.035156 34.429688 L 38.324219 34.429688 L 38.324219 14.519531 L 31.585938 14.519531 L 31.585938 34.429688 L 12.875 34.429688 L 12.875 40.417969 L 31.585938 40.417969 L 31.585938 60.777344 L 38.324219 60.777344 L 38.324219 40.417969 L 57.035156 40.417969 Z M 57.035156 34.429688 "/>
<path style=" stroke:none;fill-rule:nonzero;fill:rgb(35.686275%,39.607844%,56.862748%);fill-opacity:1;" d="M 150 71.105469 L 137.574219 71.105469 L 137.574219 57.183594 L 131.4375 57.183594 L 131.4375 71.105469 L 118.863281 71.105469 L 118.863281 76.492188 L 131.4375 76.492188 L 131.4375 90.417969 L 137.574219 90.417969 L 137.574219 76.492188 L 150 76.492188 Z M 150 71.105469 "/>
<path style=" stroke:none;fill-rule:nonzero;fill:rgb(12.156863%,26.666668%,49.411765%);fill-opacity:1;" d="M 134.582031 105.386719 L 116.167969 105.386719 L 116.167969 85.175781 L 109.28125 85.175781 L 109.28125 105.386719 L 90.71875 105.386719 L 90.71875 111.375 L 109.28125 111.375 L 109.28125 131.285156 L 116.167969 131.285156 L 116.167969 111.375 L 134.582031 111.375 Z M 134.582031 105.386719 "/>
<path style=" stroke:none;fill-rule:nonzero;fill:rgb(43.921569%,60.000002%,65.098041%);fill-opacity:1;" d="M 88.621094 14.070312 L 76.199219 14.070312 L 76.199219 0.148438 L 71.707031 0.148438 L 71.707031 14.070312 L 59.28125 14.070312 L 59.28125 18.261719 L 71.707031 18.261719 L 71.707031 31.882812 L 76.199219 31.882812 L 76.199219 18.261719 L 88.621094 18.261719 Z M 88.621094 14.070312 "/>
<path style=" stroke:none;fill-rule:nonzero;fill:rgb(43.921569%,60.000002%,65.098041%);fill-opacity:1;" d="M 29.339844 71.703125 L 16.917969 71.703125 L 16.917969 58.082031 L 12.425781 58.082031 L 12.425781 71.703125 L 0 71.703125 L 0 75.894531 L 12.425781 75.894531 L 12.425781 89.519531 L 16.917969 89.519531 L 16.917969 75.894531 L 29.339844 75.894531 Z M 29.339844 71.703125 "/>
</g>
</svg>
